<?xml version="1.0" encoding="iso-8859-1"?>
<!-- Generator: Adobe Illustrator 19.0.0, SVG Export Plug-In . SVG Version: 6.00 Build 0)  -->
<svg version="1.1" id="Layer_1" xmlns="http://www.w3.org/2000/svg" xmlns:xlink="http://www.w3.org/1999/xlink" x="0px" y="0px"
	 viewBox="0 0 511.99 511.99" style="enable-background:new 0 0 511.99 511.99;" xml:space="preserve">
<path style="fill:#434A54;" d="M448.719,386.35l-1.812-0.531c-26.469-7.094-35.422-13.938-47.201-18.406
	c-41.797-15.938-52.672-27.405-55.453-32.827c-0.109-0.203-0.188-0.406-0.266-0.609l-0.344-48.545l-99.136-1.125l-99.122,1.125
	l-0.344,48.545c-0.094,0.203-0.156,0.406-0.266,0.609c-2.781,5.422-13.656,16.89-55.451,32.827
	c-11.781,4.469-20.75,11.312-47.217,18.406l-1.812,0.531C16.202,394.318,0,416.661,0,441.879v70.106h244.508h244.523v-70.106
	C489.029,416.661,472.81,394.318,448.719,386.35z"/>
<polygon style="fill:#DA4453;" points="283.066,511.986 207.429,511.986 221.085,415.989 267.631,415.989 "/>
<rect x="426.66" y="447.985" style="fill:#5D9CEC;" width="85.33" height="31.998"/>
<rect x="426.66" y="415.985" style="fill:#FFCE54;" width="85.33" height="32"/>
<rect x="426.66" y="384.225" style="fill:#5D9CEC;" width="85.33" height="31.998"/>
<rect x="426.66" y="352.225" style="fill:#A0D468;" width="85.33" height="32"/>
<rect x="426.66" y="320.225" style="fill:#AC92EB;" width="85.33" height="31.998"/>
<rect x="330.66" y="447.985" style="fill:#A0D468;" width="85.32" height="31.998"/>
<rect x="330.66" y="415.985" style="fill:#ED5564;" width="85.32" height="32"/>
<rect x="330.66" y="384.225" style="fill:#AC92EB;" width="85.32" height="31.998"/>
<rect x="426.66" y="479.985" style="fill:#ED5564;" width="85.33" height="31.999"/>
<rect x="330.66" y="479.985" style="fill:#48CFAD;" width="85.32" height="31.999"/>
<polygon style="fill:#ED5564;" points="267.787,415.989 221.241,415.989 201.851,309.321 287.176,309.321 "/>
<g>
	<polygon style="fill:#656D78;" points="145.212,280.572 145.04,333.976 191.992,383.991 244.506,363.1 	"/>
	<polygon style="fill:#656D78;" points="343.814,280.572 343.986,333.976 297.035,383.991 244.506,363.1 	"/>
</g>
<path style="fill:#EAC6BB;" d="M382.064,191.481c0,89.372-85.201,171.619-137.558,171.619c-52.342,0-137.542-82.247-137.542-171.619
	S168.54,43.142,244.506,43.142S382.064,102.109,382.064,191.481z"/>
<path style="fill:#965353;" d="M315.504,50.876c0,0-2.672-23.781,25.812-40.889c12.061-7.25-180.745-41.608-229.134,80.216
	c-18.171,45.78-4.734,113.137-4.734,113.137l41.905-75.138c0,0,45.655,10.671,95.153,10.671s96.824-10.671,96.824-10.671
	l40.734,63.498c0,0,15.641-60.951-1.891-101.356C362.642,49.939,315.504,50.876,315.504,50.876z"/>
<g>
</g>
<g>
</g>
<g>
</g>
<g>
</g>
<g>
</g>
<g>
</g>
<g>
</g>
<g>
</g>
<g>
</g>
<g>
</g>
<g>
</g>
<g>
</g>
<g>
</g>
<g>
</g>
<g>
</g>
</svg>
