<?xml version="1.0" encoding="iso-8859-1"?>
<!-- Generator: Adobe Illustrator 19.0.0, SVG Export Plug-In . SVG Version: 6.00 Build 0)  -->
<svg version="1.1" id="Layer_1" xmlns="http://www.w3.org/2000/svg" xmlns:xlink="http://www.w3.org/1999/xlink" x="0px" y="0px"
	 viewBox="0 0 512 512" style="enable-background:new 0 0 512 512;" xml:space="preserve">
<polygon style="fill:#CCE9F9;" points="462.222,512 177.778,512 177.778,448 220.444,448 220.444,469.333 419.556,469.333 
	419.556,419.556 462.222,419.556 "/>
<polygon style="fill:#93C7EF;" points="419.556,419.556 419.556,469.333 256,469.333 256,512 462.222,512 462.222,419.556 "/>
<path style="fill:#CCE9F9;" d="M462.222,348.444h-42.667V206.222c0-43.483-17.07-84.498-48.063-115.493
	C340.498,59.736,299.483,42.667,256,42.667s-84.5,17.07-115.493,48.063c-30.994,30.994-48.063,72.01-48.063,115.493v142.222H49.778
	V206.222C49.778,92.511,142.289,0,256,0s206.222,92.511,206.222,206.222V348.444z"/>
<path style="fill:#93C7EF;" d="M256.711,0.009v42.667c43.22,0.186,83.957,17.23,114.782,48.054
	c30.993,30.994,48.063,72.01,48.063,115.493v142.222h42.667V206.222C462.222,92.749,370.096,0.394,256.711,0.009z"/>
<rect x="7.111" y="241.778" style="fill:#FF5023;" width="128" height="199.111"/>
<rect x="92.444" y="241.778" style="fill:#802812;" width="42.667" height="199.111"/>
<rect x="376.889" y="241.778" style="fill:#FF5023;" width="128" height="199.111"/>
<rect x="376.889" y="241.778" style="fill:#802812;" width="42.667" height="199.111"/>
<g>
</g>
<g>
</g>
<g>
</g>
<g>
</g>
<g>
</g>
<g>
</g>
<g>
</g>
<g>
</g>
<g>
</g>
<g>
</g>
<g>
</g>
<g>
</g>
<g>
</g>
<g>
</g>
<g>
</g>
</svg>
